<svg width="34" height="34" viewBox="0 0 34 34" fill="none" xmlns="http://www.w3.org/2000/svg">
<path d="M32.5833 4.25009C31.2267 5.20701 29.7246 5.93891 28.135 6.41759C27.2818 5.43656 26.1479 4.74123 24.8866 4.42565C23.6254 4.11006 22.2976 4.18945 21.0829 4.65306C19.8683 5.11668 18.8253 5.94215 18.095 7.01785C17.3648 8.09355 16.9826 9.36756 17 10.6676V12.0843C14.5104 12.1488 12.0435 11.5967 9.81892 10.477C7.59438 9.35728 5.68127 7.70482 4.24999 5.66675C4.24999 5.66675 -1.41668 18.4168 11.3333 24.0834C8.41574 26.0639 4.94013 27.0569 1.41666 26.9168C14.1667 34.0001 29.75 26.9168 29.75 10.6251C29.7487 10.2305 29.7107 9.83684 29.6367 9.44925C31.0825 8.02337 32.1028 6.2231 32.5833 4.25009Z" stroke="white" stroke-width="2" stroke-linecap="round" stroke-linejoin="round"/>
</svg>
