<svg width="34" height="34" viewBox="0 0 34 34" fill="none" xmlns="http://www.w3.org/2000/svg">
<path d="M22.6667 11.3333C24.921 11.3333 27.083 12.2288 28.6771 13.8228C30.2711 15.4169 31.1667 17.5789 31.1667 19.8333V29.7499H25.5V19.8333C25.5 19.0818 25.2015 18.3611 24.6701 17.8298C24.1388 17.2984 23.4181 16.9999 22.6667 16.9999C21.9152 16.9999 21.1945 17.2984 20.6632 17.8298C20.1318 18.3611 19.8333 19.0818 19.8333 19.8333V29.7499H14.1667V19.8333C14.1667 17.5789 15.0622 15.4169 16.6562 13.8228C18.2503 12.2288 20.4123 11.3333 22.6667 11.3333Z" stroke="white" stroke-width="2" stroke-linecap="round" stroke-linejoin="round"/>
<path d="M8.50001 12.75H2.83334V29.75H8.50001V12.75Z" stroke="white" stroke-width="2" stroke-linecap="round" stroke-linejoin="round"/>
<path d="M5.66668 8.49992C7.23148 8.49992 8.50001 7.23139 8.50001 5.66659C8.50001 4.10178 7.23148 2.83325 5.66668 2.83325C4.10187 2.83325 2.83334 4.10178 2.83334 5.66659C2.83334 7.23139 4.10187 8.49992 5.66668 8.49992Z" stroke="white" stroke-width="2" stroke-linecap="round" stroke-linejoin="round"/>
</svg>
