<svg width="441" height="56" viewBox="0 0 241 26" fill="none" xmlns="http://www.w3.org/2000/svg">
<path d="M17.968 18.968C18.096 18.968 18.224 18.9947 18.352 19.048C18.48 19.0907 18.6027 19.1707 18.72 19.288L20.864 21.544C19.9253 22.7707 18.7467 23.6987 17.328 24.328C15.92 24.9467 14.2507 25.256 12.32 25.256C10.5493 25.256 8.96 24.9573 7.552 24.36C6.15467 23.752 4.96533 22.92 3.984 21.864C3.01333 20.7973 2.26667 19.5387 1.744 18.088C1.22133 16.6267 0.96 15.0427 0.96 13.336C0.96 11.5973 1.24267 10.0027 1.808 8.552C2.37333 7.09067 3.168 5.832 4.192 4.776C5.216 3.72 6.44267 2.89867 7.872 2.312C9.30133 1.72533 10.8747 1.432 12.592 1.432C13.4667 1.432 14.288 1.512 15.056 1.672C15.8347 1.82133 16.56 2.03466 17.232 2.312C17.904 2.57867 18.5227 2.904 19.088 3.288C19.6533 3.672 20.1547 4.088 20.592 4.536L18.768 6.984C18.6507 7.13333 18.512 7.272 18.352 7.4C18.192 7.51733 17.968 7.576 17.68 7.576C17.488 7.576 17.3067 7.53333 17.136 7.448C16.9653 7.36267 16.784 7.26133 16.592 7.144C16.4 7.016 16.1867 6.88267 15.952 6.744C15.728 6.59467 15.456 6.46133 15.136 6.344C14.8267 6.216 14.4587 6.10933 14.032 6.024C13.616 5.93867 13.1253 5.896 12.56 5.896C11.664 5.896 10.8427 6.06133 10.096 6.392C9.36 6.72267 8.72 7.208 8.176 7.848C7.64267 8.47733 7.22667 9.256 6.928 10.184C6.64 11.1013 6.496 12.152 6.496 13.336C6.496 14.5307 6.656 15.592 6.976 16.52C7.30667 17.448 7.74933 18.232 8.304 18.872C8.86933 19.5013 9.52533 19.9813 10.272 20.312C11.0187 20.6427 11.8187 20.808 12.672 20.808C13.1627 20.808 13.6107 20.7867 14.016 20.744C14.4213 20.6907 14.8 20.6107 15.152 20.504C15.504 20.3867 15.8347 20.2373 16.144 20.056C16.4533 19.864 16.768 19.624 17.088 19.336C17.216 19.2293 17.3547 19.144 17.504 19.08C17.6533 19.0053 17.808 18.968 17.968 18.968ZM89.0135 16.088L86.8535 9.704C86.6935 9.29867 86.5228 8.824 86.3415 8.28C86.1602 7.72533 85.9788 7.128 85.7975 6.488C85.6375 7.13867 85.4668 7.74133 85.2855 8.296C85.1042 8.85067 84.9335 9.33067 84.7735 9.736L82.6295 16.088H89.0135ZM97.6055 25H93.4135C92.9442 25 92.5655 24.8933 92.2775 24.68C91.9895 24.456 91.7708 24.1733 91.6215 23.832L90.2455 19.768H81.3815L80.0055 23.832C79.8882 24.1307 79.6748 24.4027 79.3655 24.648C79.0668 24.8827 78.6935 25 78.2455 25H74.0215L83.0455 1.688H88.5815L97.6055 25ZM120.855 6.424C120.695 6.68 120.524 6.872 120.343 7C120.172 7.128 119.948 7.192 119.671 7.192C119.425 7.192 119.159 7.11733 118.871 6.968C118.593 6.808 118.273 6.632 117.911 6.44C117.559 6.248 117.153 6.07733 116.695 5.928C116.236 5.768 115.713 5.688 115.127 5.688C114.113 5.688 113.356 5.90667 112.855 6.344C112.364 6.77067 112.119 7.352 112.119 8.088C112.119 8.55733 112.268 8.94667 112.567 9.256C112.865 9.56533 113.255 9.832 113.735 10.056C114.225 10.28 114.78 10.488 115.399 10.68C116.028 10.8613 116.668 11.0693 117.319 11.304C117.969 11.528 118.604 11.7947 119.223 12.104C119.852 12.4133 120.407 12.808 120.887 13.288C121.377 13.768 121.772 14.3547 122.071 15.048C122.369 15.7307 122.519 16.5573 122.519 17.528C122.519 18.6053 122.332 19.6133 121.959 20.552C121.585 21.4907 121.041 22.312 120.327 23.016C119.623 23.7093 118.748 24.2587 117.703 24.664C116.668 25.0587 115.489 25.256 114.167 25.256C113.441 25.256 112.7 25.1813 111.943 25.032C111.196 24.8827 110.471 24.6747 109.767 24.408C109.063 24.1307 108.401 23.8053 107.783 23.432C107.164 23.0587 106.625 22.6427 106.167 22.184L107.767 19.656C107.895 19.4747 108.06 19.3253 108.263 19.208C108.476 19.08 108.705 19.016 108.951 19.016C109.271 19.016 109.591 19.1173 109.911 19.32C110.241 19.5227 110.609 19.7467 111.015 19.992C111.431 20.2373 111.905 20.4613 112.439 20.664C112.972 20.8667 113.601 20.968 114.327 20.968C115.308 20.968 116.071 20.7547 116.615 20.328C117.159 19.8907 117.431 19.2027 117.431 18.264C117.431 17.72 117.281 17.2773 116.983 16.936C116.684 16.5947 116.289 16.312 115.799 16.088C115.319 15.864 114.769 15.6667 114.151 15.496C113.532 15.3253 112.897 15.1387 112.247 14.936C111.596 14.7227 110.961 14.4667 110.343 14.168C109.724 13.8587 109.169 13.4587 108.679 12.968C108.199 12.4667 107.809 11.848 107.511 11.112C107.212 10.3653 107.063 9.448 107.063 8.36C107.063 7.48533 107.239 6.632 107.591 5.8C107.943 4.968 108.46 4.22666 109.143 3.576C109.825 2.92533 110.663 2.408 111.655 2.024C112.647 1.62933 113.783 1.432 115.063 1.432C115.777 1.432 116.471 1.49067 117.143 1.608C117.825 1.71467 118.471 1.88 119.079 2.104C119.687 2.31733 120.252 2.57867 120.775 2.888C121.308 3.18667 121.783 3.528 122.199 3.912L120.855 6.424Z" fill="#004E69"/>
<path d="M37.3413 8.408V25H34.2693C33.6506 25 33.2453 24.7227 33.0533 24.168L32.7653 23.208C32.4453 23.5173 32.1146 23.8 31.7733 24.056C31.4319 24.3013 31.0639 24.5147 30.6693 24.696C30.2853 24.8667 29.8639 25 29.4053 25.096C28.9573 25.2027 28.4666 25.256 27.9333 25.256C27.0266 25.256 26.2213 25.1013 25.5173 24.792C24.8239 24.472 24.2373 24.0293 23.7573 23.464C23.2773 22.8987 22.9146 22.232 22.6693 21.464C22.4239 20.696 22.3013 19.8533 22.3013 18.936V8.408H27.2613V18.936C27.2613 19.7573 27.4479 20.392 27.8213 20.84C28.1946 21.288 28.7439 21.512 29.4693 21.512C30.0133 21.512 30.5199 21.4 30.9893 21.176C31.4693 20.9413 31.9333 20.6267 32.3813 20.232V8.408H37.3413ZM45.6713 20.488C46.0446 20.8933 46.4499 21.1813 46.8873 21.352C47.3246 21.5227 47.7673 21.608 48.2153 21.608C48.6846 21.608 49.1166 21.5227 49.5113 21.352C49.9059 21.1707 50.2419 20.8827 50.5193 20.488C50.8073 20.0827 51.0313 19.5547 51.1913 18.904C51.3513 18.2427 51.4313 17.432 51.4313 16.472C51.4313 15.64 51.3673 14.936 51.2393 14.36C51.1219 13.7733 50.9406 13.2987 50.6953 12.936C50.4606 12.5627 50.1619 12.296 49.7993 12.136C49.4473 11.9653 49.0419 11.88 48.5833 11.88C47.9753 11.88 47.4473 12.0133 46.9993 12.28C46.5513 12.5467 46.1086 12.936 45.6713 13.448V20.488ZM45.6713 10.168C46.3113 9.56 47.0099 9.07467 47.7673 8.712C48.5353 8.33867 49.3886 8.152 50.3273 8.152C51.2659 8.152 52.1193 8.344 52.8873 8.728C53.6553 9.112 54.3113 9.66133 54.8553 10.376C55.3993 11.08 55.8153 11.9333 56.1033 12.936C56.4019 13.9387 56.5513 15.0587 56.5513 16.296C56.5513 17.64 56.3806 18.8613 56.0393 19.96C55.6979 21.0587 55.2126 22.0027 54.5833 22.792C53.9646 23.5707 53.2233 24.1787 52.3593 24.616C51.4953 25.0427 50.5406 25.256 49.4953 25.256C48.9939 25.256 48.5459 25.208 48.1513 25.112C47.7566 25.016 47.3939 24.8827 47.0633 24.712C46.7326 24.5307 46.4286 24.3173 46.1513 24.072C45.8846 23.8267 45.6233 23.56 45.3673 23.272L45.1913 24.104C45.1059 24.4453 44.9673 24.68 44.7753 24.808C44.5833 24.936 44.3273 25 44.0073 25H40.7113V1.048H45.6713V10.168ZM69.4063 14.712C69.4063 14.3173 69.3529 13.9333 69.2463 13.56C69.1503 13.1867 68.9849 12.856 68.7503 12.568C68.5263 12.2693 68.2276 12.0293 67.8543 11.848C67.4809 11.6667 67.0276 11.576 66.4943 11.576C65.5556 11.576 64.8196 11.848 64.2863 12.392C63.7529 12.9253 63.4009 13.6987 63.2303 14.712H69.4063ZM63.1663 17.592C63.3263 18.9787 63.7476 19.9867 64.4303 20.616C65.1129 21.2347 65.9929 21.544 67.0703 21.544C67.6463 21.544 68.1423 21.4747 68.5583 21.336C68.9743 21.1973 69.3423 21.0427 69.6623 20.872C69.9929 20.7013 70.2916 20.5467 70.5583 20.408C70.8356 20.2693 71.1236 20.2 71.4223 20.2C71.8169 20.2 72.1156 20.344 72.3183 20.632L73.7583 22.408C73.2463 22.9947 72.6916 23.4747 72.0943 23.848C71.5076 24.2107 70.8996 24.4987 70.2703 24.712C69.6516 24.9147 69.0276 25.0533 68.3983 25.128C67.7796 25.2133 67.1876 25.256 66.6223 25.256C65.4596 25.256 64.3663 25.0693 63.3423 24.696C62.3289 24.312 61.4383 23.7467 60.6703 23C59.9129 22.2533 59.3103 21.3253 58.8623 20.216C58.4249 19.1067 58.2063 17.816 58.2063 16.344C58.2063 15.2347 58.3929 14.184 58.7663 13.192C59.1503 12.2 59.6943 11.3307 60.3983 10.584C61.1129 9.83733 61.9716 9.24533 62.9743 8.808C63.9876 8.37067 65.1289 8.152 66.3983 8.152C67.4969 8.152 68.4996 8.32267 69.4063 8.664C70.3236 9.00533 71.1076 9.50133 71.7583 10.152C72.4196 10.8027 72.9316 11.6027 73.2943 12.552C73.6676 13.4907 73.8542 14.5573 73.8542 15.752C73.8542 16.1253 73.8383 16.4293 73.8063 16.664C73.7743 16.8987 73.7156 17.0853 73.6303 17.224C73.5449 17.3627 73.4276 17.4587 73.2783 17.512C73.1396 17.5653 72.9583 17.592 72.7343 17.592H63.1663ZM103.94 8.408V25H98.9795V8.408H103.94ZM104.452 3.864C104.452 4.25867 104.372 4.632 104.212 4.984C104.052 5.32533 103.833 5.62933 103.556 5.896C103.278 6.152 102.953 6.36 102.58 6.52C102.217 6.66933 101.828 6.744 101.411 6.744C101.006 6.744 100.628 6.66933 100.276 6.52C99.9235 6.36 99.6088 6.152 99.3315 5.896C99.0648 5.62933 98.8515 5.32533 98.6915 4.984C98.5422 4.632 98.4675 4.25867 98.4675 3.864C98.4675 3.45867 98.5422 3.08 98.6915 2.728C98.8515 2.376 99.0648 2.06667 99.3315 1.8C99.6088 1.53333 99.9235 1.32533 100.276 1.176C100.628 1.02667 101.006 0.952 101.411 0.952C101.828 0.952 102.217 1.02667 102.58 1.176C102.953 1.32533 103.278 1.53333 103.556 1.8C103.833 2.06667 104.052 2.376 104.212 2.728C104.372 3.08 104.452 3.45867 104.452 3.864ZM132.766 8.152C134.024 8.152 135.171 8.34933 136.206 8.744C137.24 9.13867 138.126 9.704 138.862 10.44C139.608 11.176 140.184 12.072 140.59 13.128C141.006 14.1733 141.214 15.352 141.214 16.664C141.214 17.9867 141.006 19.1813 140.59 20.248C140.184 21.304 139.608 22.2053 138.862 22.952C138.126 23.688 137.24 24.2587 136.206 24.664C135.171 25.0587 134.024 25.256 132.766 25.256C131.496 25.256 130.339 25.0587 129.294 24.664C128.259 24.2587 127.363 23.688 126.606 22.952C125.859 22.2053 125.278 21.304 124.862 20.248C124.456 19.1813 124.254 17.9867 124.254 16.664C124.254 15.352 124.456 14.1733 124.862 13.128C125.278 12.072 125.859 11.176 126.606 10.44C127.363 9.704 128.259 9.13867 129.294 8.744C130.339 8.34933 131.496 8.152 132.766 8.152ZM132.766 21.576C133.907 21.576 134.744 21.176 135.278 20.376C135.822 19.5653 136.094 18.3387 136.094 16.696C136.094 15.0533 135.822 13.832 135.278 13.032C134.744 12.232 133.907 11.832 132.766 11.832C131.592 11.832 130.734 12.232 130.19 13.032C129.646 13.832 129.374 15.0533 129.374 16.696C129.374 18.3387 129.646 19.5653 130.19 20.376C130.734 21.176 131.592 21.576 132.766 21.576ZM148.671 1.048V25H143.711V1.048H148.671ZM166.904 8.408V25H163.832C163.213 25 162.808 24.7227 162.616 24.168L162.328 23.208C162.008 23.5173 161.677 23.8 161.336 24.056C160.994 24.3013 160.626 24.5147 160.232 24.696C159.848 24.8667 159.426 25 158.968 25.096C158.52 25.2027 158.029 25.256 157.496 25.256C156.589 25.256 155.784 25.1013 155.08 24.792C154.386 24.472 153.8 24.0293 153.32 23.464C152.84 22.8987 152.477 22.232 152.232 21.464C151.986 20.696 151.864 19.8533 151.864 18.936V8.408H156.824V18.936C156.824 19.7573 157.01 20.392 157.384 20.84C157.757 21.288 158.306 21.512 159.032 21.512C159.576 21.512 160.082 21.4 160.552 21.176C161.032 20.9413 161.496 20.6267 161.944 20.232V8.408H166.904ZM188.21 25H183.25V11.832H176.306V20.072C176.306 20.456 176.396 20.776 176.578 21.032C176.77 21.2773 177.042 21.4 177.394 21.4C177.575 21.4 177.724 21.384 177.842 21.352C177.97 21.3093 178.076 21.2667 178.162 21.224C178.258 21.1707 178.343 21.128 178.418 21.096C178.503 21.0533 178.599 21.032 178.706 21.032C178.855 21.032 178.972 21.0693 179.058 21.144C179.154 21.208 179.25 21.3147 179.346 21.464L180.85 23.816C180.21 24.296 179.49 24.6587 178.69 24.904C177.89 25.1387 177.063 25.256 176.21 25.256C175.42 25.256 174.722 25.144 174.114 24.92C173.516 24.6853 173.01 24.36 172.594 23.944C172.188 23.5173 171.879 23.0053 171.666 22.408C171.452 21.8107 171.346 21.144 171.346 20.408V11.832H169.938C169.682 11.832 169.463 11.752 169.282 11.592C169.1 11.4213 169.01 11.176 169.01 10.856V8.92L171.65 8.392L172.626 4.36C172.754 3.848 173.116 3.592 173.714 3.592H176.306V8.44H188.21V25ZM188.898 3.848C188.898 4.24267 188.818 4.616 188.658 4.968C188.498 5.32 188.279 5.62933 188.002 5.896C187.724 6.152 187.399 6.35467 187.026 6.504C186.663 6.65333 186.274 6.728 185.858 6.728C185.452 6.728 185.074 6.65333 184.722 6.504C184.37 6.35467 184.055 6.152 183.778 5.896C183.511 5.62933 183.298 5.32 183.138 4.968C182.988 4.616 182.914 4.24267 182.914 3.848C182.914 3.45333 182.988 3.08 183.138 2.728C183.298 2.36533 183.511 2.056 183.778 1.8C184.055 1.53333 184.37 1.32533 184.722 1.176C185.074 1.016 185.452 0.935999 185.858 0.935999C186.274 0.935999 186.663 1.016 187.026 1.176C187.399 1.32533 187.724 1.53333 188.002 1.8C188.279 2.056 188.498 2.36533 188.658 2.728C188.818 3.08 188.898 3.45333 188.898 3.848ZM199.328 8.152C200.587 8.152 201.733 8.34933 202.768 8.744C203.803 9.13867 204.688 9.704 205.424 10.44C206.171 11.176 206.747 12.072 207.152 13.128C207.568 14.1733 207.776 15.352 207.776 16.664C207.776 17.9867 207.568 19.1813 207.152 20.248C206.747 21.304 206.171 22.2053 205.424 22.952C204.688 23.688 203.803 24.2587 202.768 24.664C201.733 25.0587 200.587 25.256 199.328 25.256C198.059 25.256 196.901 25.0587 195.856 24.664C194.821 24.2587 193.925 23.688 193.168 22.952C192.421 22.2053 191.84 21.304 191.424 20.248C191.019 19.1813 190.816 17.9867 190.816 16.664C190.816 15.352 191.019 14.1733 191.424 13.128C191.84 12.072 192.421 11.176 193.168 10.44C193.925 9.704 194.821 9.13867 195.856 8.744C196.901 8.34933 198.059 8.152 199.328 8.152ZM199.328 21.576C200.469 21.576 201.307 21.176 201.84 20.376C202.384 19.5653 202.656 18.3387 202.656 16.696C202.656 15.0533 202.384 13.832 201.84 13.032C201.307 12.232 200.469 11.832 199.328 11.832C198.155 11.832 197.296 12.232 196.752 13.032C196.208 13.832 195.936 15.0533 195.936 16.696C195.936 18.3387 196.208 19.5653 196.752 20.376C197.296 21.176 198.155 21.576 199.328 21.576ZM214.85 10.2C215.17 9.90133 215.5 9.624 215.842 9.368C216.183 9.112 216.546 8.89867 216.93 8.728C217.324 8.54667 217.746 8.408 218.194 8.312C218.652 8.20533 219.148 8.152 219.682 8.152C220.588 8.152 221.388 8.312 222.082 8.632C222.786 8.94133 223.378 9.37867 223.858 9.944C224.338 10.4987 224.7 11.1653 224.946 11.944C225.191 12.712 225.314 13.5493 225.314 14.456V25H220.354V14.456C220.354 13.6453 220.167 13.016 219.794 12.568C219.42 12.1093 218.871 11.88 218.146 11.88C217.602 11.88 217.09 11.9973 216.61 12.232C216.14 12.456 215.682 12.7653 215.234 13.16V25H210.274V8.408H213.346C213.964 8.408 214.37 8.68533 214.562 9.24L214.85 10.2ZM239.068 12.04C238.94 12.2427 238.801 12.3867 238.652 12.472C238.513 12.5573 238.332 12.6 238.108 12.6C237.873 12.6 237.638 12.552 237.404 12.456C237.169 12.3493 236.913 12.2373 236.636 12.12C236.369 12.0027 236.065 11.896 235.724 11.8C235.382 11.6933 234.993 11.64 234.556 11.64C233.926 11.64 233.441 11.7627 233.1 12.008C232.769 12.2427 232.604 12.5733 232.604 13C232.604 13.3093 232.71 13.5653 232.924 13.768C233.148 13.9707 233.441 14.152 233.804 14.312C234.166 14.4613 234.577 14.6053 235.036 14.744C235.494 14.8827 235.964 15.0373 236.444 15.208C236.924 15.3787 237.393 15.5813 237.852 15.816C238.31 16.04 238.721 16.3227 239.084 16.664C239.446 16.9947 239.734 17.4 239.948 17.88C240.172 18.36 240.284 18.936 240.284 19.608C240.284 20.4293 240.134 21.1867 239.836 21.88C239.537 22.5733 239.089 23.1707 238.492 23.672C237.905 24.1733 237.174 24.5627 236.3 24.84C235.436 25.1173 234.438 25.256 233.308 25.256C232.742 25.256 232.177 25.2027 231.612 25.096C231.046 24.9893 230.497 24.8453 229.964 24.664C229.441 24.4827 228.956 24.2693 228.508 24.024C228.06 23.768 227.676 23.496 227.356 23.208L228.508 21.384C228.636 21.1707 228.796 21.0053 228.988 20.888C229.19 20.76 229.446 20.696 229.756 20.696C230.044 20.696 230.3 20.76 230.524 20.888C230.758 21.016 231.009 21.1547 231.276 21.304C231.542 21.4533 231.852 21.592 232.204 21.72C232.566 21.848 233.02 21.912 233.564 21.912C233.948 21.912 234.273 21.8747 234.54 21.8C234.806 21.7147 235.02 21.6027 235.18 21.464C235.34 21.3253 235.457 21.1707 235.532 21C235.606 20.8293 235.644 20.6533 235.644 20.472C235.644 20.1413 235.532 19.8693 235.308 19.656C235.084 19.4427 234.79 19.2613 234.428 19.112C234.065 18.952 233.649 18.808 233.18 18.68C232.721 18.5413 232.252 18.3867 231.772 18.216C231.292 18.0453 230.817 17.8427 230.348 17.608C229.889 17.3627 229.478 17.0587 229.116 16.696C228.753 16.3227 228.46 15.8693 228.236 15.336C228.012 14.8027 227.9 14.1573 227.9 13.4C227.9 12.696 228.033 12.0293 228.3 11.4C228.577 10.76 228.988 10.2 229.532 9.72C230.076 9.24 230.758 8.86133 231.58 8.584C232.401 8.296 233.361 8.152 234.46 8.152C235.057 8.152 235.633 8.20533 236.188 8.312C236.753 8.41867 237.281 8.568 237.772 8.76C238.262 8.952 238.71 9.18133 239.116 9.448C239.521 9.704 239.878 9.98667 240.188 10.296L239.068 12.04Z" fill="#2596BE"/>
</svg>
