<svg width="34" height="32" viewBox="0 0 34 32" fill="none" xmlns="http://www.w3.org/2000/svg">
<path fill-rule="evenodd" clip-rule="evenodd" d="M10.0246 17.568C13.5949 16.7015 17.3173 16.7015 20.8875 17.568C21.3132 17.6802 21.6792 17.955 21.9085 18.3345L24.3739 21.8201L25.8818 17.6407C25.9643 17.3013 26.1761 17.0087 26.4712 16.8266L28.1535 15.5538C28.2399 15.4888 28.3483 15.4609 28.455 15.476C28.5616 15.4912 28.6581 15.5483 28.7235 15.6349C28.7878 15.7223 28.8154 15.8319 28.8004 15.9397C28.7854 16.0476 28.7289 16.1451 28.6432 16.2112L27.6693 16.9469L27.946 17.0644L29.0223 16.3511C29.0926 16.3053 29.1778 16.2894 29.2596 16.3067C29.3414 16.3239 29.4132 16.3731 29.4595 16.4434C29.5047 16.5144 29.5205 16.6006 29.5034 16.6833C29.4863 16.766 29.4377 16.8386 29.3682 16.8854L28.8148 17.2491H30.2204C30.339 17.2498 30.4526 17.2978 30.5365 17.3826C30.6204 17.4674 30.6679 17.5823 30.6686 17.7022C30.6686 17.8227 30.6215 17.9383 30.5375 18.0237C30.4535 18.1091 30.3395 18.1575 30.2204 18.1582H29.0029C28.949 18.3345 28.8824 18.5065 28.8037 18.673L26.1696 26.296C26.0726 26.5742 25.8993 26.8187 25.6698 27.0009C25.4404 27.1831 25.1644 27.2955 24.8741 27.3248C24.5838 27.3542 24.2912 27.2993 24.0306 27.1667C23.77 27.034 23.5522 26.829 23.4027 26.5757L21.0508 22.9167L19.8914 29.3508C19.6341 30.7831 18.7847 32.0028 17.4344 32.0028H13.4832C12.133 32.0028 11.2863 30.7831 11.029 29.3508L9.81152 22.5894L7.25765 26.5757C7.15609 26.7523 7.02109 26.9068 6.86037 27.0305C6.69965 27.1542 6.51637 27.2446 6.32103 27.2966C6.12569 27.3486 5.92213 27.3611 5.72201 27.3334C5.52188 27.3057 5.32913 27.2384 5.15478 27.1352C4.83843 26.9467 4.60051 26.6485 4.48519 26.296L1.86491 18.673C1.78429 18.5067 1.71585 18.3346 1.66016 18.1582H0.451009C0.331394 18.1582 0.216678 18.1102 0.132097 18.0247C0.0475169 17.9392 0 17.8232 0 17.7022C0.000730903 17.5818 0.0485703 17.4665 0.133072 17.3816C0.217573 17.2967 0.331872 17.2491 0.451009 17.2491H1.85384L1.30046 16.8854C1.26572 16.8625 1.23579 16.8328 1.2124 16.7982C1.189 16.7636 1.17259 16.7246 1.16411 16.6835C1.15563 16.6425 1.15524 16.6001 1.16297 16.5589C1.1707 16.5177 1.18639 16.4785 1.20915 16.4434C1.23182 16.4063 1.26177 16.3743 1.29716 16.3494C1.33254 16.3245 1.37261 16.3071 1.41488 16.2985C1.45715 16.2898 1.50072 16.29 1.54291 16.2991C1.5851 16.3081 1.625 16.3258 1.66016 16.3511L2.72542 17.0644L3.00212 16.9469L2.00879 16.2028C1.9244 16.1355 1.86955 16.0374 1.85609 15.9296C1.84264 15.8218 1.87164 15.7129 1.93685 15.6265C2.00174 15.5446 2.09498 15.4907 2.19771 15.4756C2.30045 15.4606 2.405 15.4855 2.49023 15.5454L4.17529 16.8183C4.47036 17.0003 4.68223 17.2929 4.76465 17.6323L6.27539 21.8201L8.74072 18.3373C8.87732 18.1199 9.06231 17.9379 9.28091 17.8058C9.49952 17.6737 9.74566 17.5951 9.99967 17.5764H10.0246V17.568ZM15.2375 5.74875C16.2351 5.74875 17.2103 6.04785 18.0398 6.60822C18.8693 7.16858 19.5158 7.96505 19.8976 8.89691C20.2794 9.82877 20.3793 10.8542 20.1847 11.8434C19.99 12.8327 19.5096 13.7414 18.8042 14.4546C18.0988 15.1678 17.2 15.6535 16.2215 15.8503C15.2431 16.047 14.2289 15.946 13.3072 15.5601C12.3855 15.1741 11.5977 14.5204 11.0434 13.6818C10.4892 12.8431 10.1934 11.8571 10.1934 10.8485C10.1934 9.49596 10.7248 8.19882 11.6707 7.24243C12.6167 6.28605 13.8997 5.74875 15.2375 5.74875ZM26.936 7.63703V7.46918C26.9287 7.16268 26.9585 6.85643 27.0246 6.55722C27.0714 6.35108 27.1662 6.15925 27.3013 5.99773C27.4261 5.85301 27.5705 5.72682 27.7301 5.62287C27.8768 5.52496 28.0068 5.43264 28.123 5.34312C28.2299 5.26591 28.3234 5.17139 28.3997 5.06338C28.4683 4.96112 28.504 4.84001 28.5021 4.7165C28.5046 4.60795 28.4757 4.50103 28.4191 4.40878C28.366 4.32084 28.2892 4.25001 28.1978 4.20456C28.1005 4.15627 27.9935 4.13138 27.8851 4.13183C27.7652 4.12993 27.6469 4.15983 27.542 4.21855C27.4388 4.27403 27.352 4.35606 27.2902 4.45633C27.2259 4.56324 27.1933 4.68653 27.1961 4.81161H25.4225C25.4064 4.37159 25.5263 3.93743 25.7656 3.56954C25.9899 3.25283 26.3004 3.00887 26.6593 2.86738C27.049 2.71417 27.4642 2.63819 27.8823 2.64359C28.3298 2.63601 28.775 2.70992 29.1966 2.86179C29.5552 2.98712 29.871 3.21323 30.1069 3.51359C30.3356 3.82821 30.4526 4.21162 30.439 4.6018C30.4477 4.84454 30.4043 5.08631 30.3116 5.31041C30.2189 5.53452 30.0792 5.73561 29.9022 5.89982C29.7295 6.07066 29.5372 6.21999 29.3294 6.34461C29.1789 6.42731 29.0387 6.52779 28.9116 6.64394C28.8038 6.74144 28.7171 6.86051 28.6571 6.99362C28.5972 7.14472 28.5681 7.30645 28.5713 7.46918V7.63703H26.936ZM31.7892 0.839234H23.7485C23.611 0.838711 23.4748 0.865317 23.3473 0.917563C23.219 0.972682 23.1025 1.05249 23.0042 1.15255C22.9046 1.25036 22.8254 1.36733 22.7713 1.49656C22.7171 1.6258 22.6891 1.7647 22.6888 1.90506V10.468C22.6895 10.6072 22.7168 10.7449 22.769 10.8737C22.8229 11.0031 22.9008 11.1209 22.9987 11.2206C23.0982 11.3203 23.2156 11.4001 23.3446 11.4555C23.472 11.5078 23.6083 11.5344 23.7458 11.5339H24.5094H24.5758C24.7794 11.5553 24.9668 11.6555 25.0988 11.8136C25.2274 11.9599 25.2975 12.1494 25.2952 12.3451L25.4115 13.6627L27.7274 11.7493C27.876 11.6043 28.0743 11.5231 28.2808 11.5227H32.1213C32.2588 11.5232 32.395 11.4966 32.5225 11.4444C32.6504 11.3886 32.7668 11.3088 32.8656 11.2094L32.8849 11.1926C32.9743 11.0959 33.0464 10.9842 33.098 10.8625C33.1494 10.7336 33.1757 10.5958 33.1755 10.4569V1.90506C33.176 1.76604 33.1497 1.62826 33.098 1.49943C33.0442 1.36997 32.9662 1.2522 32.8683 1.15255C32.7681 1.05365 32.6509 0.974019 32.5225 0.917563C32.3933 0.864597 32.2551 0.837977 32.1157 0.839234H31.7892ZM23.7485 0H32.1157C32.3626 0.000941451 32.6069 0.0503452 32.8351 0.145467C33.063 0.243238 33.2704 0.383717 33.4466 0.559489C33.6209 0.737214 33.76 0.94708 33.8561 1.17773C33.9502 1.40847 33.9991 1.65548 34 1.90506V10.468C34.003 10.9598 33.8164 11.4334 33.4798 11.7884L33.4577 11.8136C33.2815 11.9894 33.074 12.1299 32.8462 12.2276C32.618 12.3228 32.3736 12.3722 32.1268 12.3731H28.2918L25.3533 14.7845C25.2849 14.8487 25.1973 14.8881 25.1043 14.8964C24.9951 14.9057 24.8866 14.8709 24.8026 14.7997C24.7186 14.7284 24.6659 14.6264 24.6561 14.516L24.4707 12.3731H23.7485C23.5017 12.3722 23.2574 12.3228 23.0291 12.2276C22.5664 12.0319 22.1992 11.6587 22.0081 11.1898C21.9127 10.9595 21.8638 10.7122 21.8643 10.4625V1.90506C21.8638 1.65535 21.9127 1.40806 22.0081 1.17773C22.1508 0.829592 22.3922 0.531959 22.7019 0.322364C23.0116 0.112768 23.3758 0.00059788 23.7485 0ZM27.7744 9.9729C27.6477 9.97536 27.5218 9.95185 27.4044 9.90377C27.2869 9.85569 27.1803 9.78404 27.091 9.69315C27 9.60365 26.9285 9.49601 26.8808 9.37706C26.8332 9.25812 26.8105 9.13046 26.8143 9.00218C26.8111 8.87607 26.8341 8.75067 26.8817 8.63408C26.9294 8.51748 27.0007 8.41226 27.091 8.3252C27.1796 8.23554 27.2849 8.16442 27.4007 8.11589C27.5166 8.06737 27.6407 8.04239 27.7661 8.04239C27.8915 8.04239 28.0157 8.06737 28.1315 8.11589C28.2473 8.16442 28.3526 8.23554 28.4412 8.3252C28.5343 8.41118 28.6086 8.51574 28.6596 8.63228C28.7105 8.74881 28.737 8.87477 28.7373 9.00218C28.7361 9.17633 28.6873 9.34675 28.5962 9.49454C28.5082 9.63768 28.3877 9.75755 28.2448 9.84422C28.1029 9.93077 27.9402 9.97626 27.7744 9.9757V9.9729Z" fill="white"/>
</svg>
