<svg width="23" height="23" viewBox="0 0 23 23" fill="none" xmlns="http://www.w3.org/2000/svg">
<path d="M11.5 0C5.14939 0 0 5.14861 0 11.5C0 17.8514 5.14888 23 11.5 23C17.8516 23 23 17.8514 23 11.5C23 5.14861 17.8516 0 11.5 0ZM11.5 3.43863C13.6014 3.43863 15.3042 5.14204 15.3042 7.2425C15.3042 9.34347 13.6014 11.0464 11.5 11.0464C9.39963 11.0464 7.69681 9.34347 7.69681 7.2425C7.69681 5.14204 9.39963 3.43863 11.5 3.43863ZM11.4975 19.9933C9.40165 19.9933 7.48212 19.23 6.00156 17.9666C5.64089 17.6589 5.43277 17.2078 5.43277 16.7345C5.43277 14.6042 7.15681 12.8993 9.28749 12.8993H13.7135C15.8447 12.8993 17.5622 14.6042 17.5622 16.7345C17.5622 17.2083 17.3551 17.6584 16.9939 17.9661C15.5138 19.23 13.5938 19.9933 11.4975 19.9933Z" fill="#004E69"/>
</svg>
