<?xml version="1.0" encoding="utf-8"?>
<!-- Generator: Adobe Illustrator 23.0.5, SVG Export Plug-In . SVG Version: 6.00 Build 0)  -->
<svg version="1.1" id="Layer_1" xmlns="http://www.w3.org/2000/svg" xmlns:xlink="http://www.w3.org/1999/xlink" x="0px" y="0px"
	 viewBox="0 0 89.64 90.06" style="enable-background:new 0 0 89.64 90.06;" xml:space="preserve">
<style type="text/css">
	.st0{clip-path:url(#SVGID_2_);fill:url(#SVGID_3_);}
	.st1{fill-rule:evenodd;clip-rule:evenodd;fill:#248DCB;}
	.st2{fill-rule:evenodd;clip-rule:evenodd;fill:#60C2EE;}
	.st3{fill-rule:evenodd;clip-rule:evenodd;fill:#0F2E49;}
	.st4{fill-rule:evenodd;clip-rule:evenodd;fill:#1A5881;}
	.st5{fill-rule:evenodd;clip-rule:evenodd;fill:#1994D2;}
	.st6{clip-path:url(#SVGID_5_);fill:url(#SVGID_6_);}
	.st7{fill:#185B80;}
	.st8{font-family:'MongolianBaiti';}
	.st9{font-size:6.6219px;}
	.st10{fill:#1090D0;}
	.st11{font-size:5.2975px;}
	.st12{font-size:6.6101px;}
	.st13{font-size:8.2626px;}
	.st14{fill:#DFDBD4;}
	.st15{fill:#E5E1DB;}
	.st16{fill:#E6E3DE;}
	.st17{fill:#E8E3DF;}
	.st18{fill:#E8E4E0;}
	.st19{fill:#E6E4DF;}
	.st20{fill:#E8E4DF;}
	.st21{fill:#E3DFD9;}
	.st22{fill:#EAE6E2;}
	.st23{fill:#E4E1DB;}
	.st24{fill:#E4E0DB;}
	.st25{fill:#E4DFDA;}
	.st26{fill:#E6E2DD;}
	.st27{fill:#E5E2DD;}
	.st28{fill:#E4E1DC;}
	.st29{fill:#E6E2DE;}
	.st30{fill:#E7E5E1;}
	.st31{fill:#E8E6E2;}
	.st32{fill:#FDFDFD;}
	.st33{fill:#DFDBD5;}
	.st34{fill:#E5E2DB;}
	.st35{fill:#E6E4E0;}
	.st36{fill:#DEDAD4;}
	.st37{fill:#E4E0DA;}
	.st38{fill:#E2DFD9;}
	.st39{fill:#E3E0D9;}
	.st40{fill:#DBD7D0;}
	.st41{fill:#E2DDD8;}
	.st42{fill:#DDD9D2;}
	.st43{fill:#E2DED9;}
	.st44{fill:#E2DED8;}
	.st45{fill:#E8E6E1;}
	.st46{fill:#DDD9D3;}
	.st47{fill:#E0DCD6;}
	.st48{fill:#E6E3DF;}
	.st49{fill:#E9E8E2;}
	.st50{fill:#DEDAD5;}
	.st51{fill:#E3E0DA;}
	.st52{fill:#E1DDD7;}
	.st53{fill:#DFDCD6;}
	.st54{fill:#E3DFD8;}
	.st55{fill:#DFDBD6;}
	.st56{fill:#EEEDEB;}
	.st57{fill:#E1DED7;}
	.st58{fill:#E6E1DC;}
	.st59{fill:#DDD8D1;}
	.st60{fill:#EDECEA;}
	.st61{fill:#DDD8D2;}
	.st62{fill:#EDECE9;}
	.st63{fill:#EDECE8;}
	.st64{fill:#E2DDD7;}
	.st65{fill:#EEEDE9;}
	.st66{fill:#D6D2CA;}
	.st67{fill:#DBD8D2;}
	.st68{fill:#EDEBE8;}
	.st69{fill:#DDDAD3;}
	.st70{fill:#EBEAE7;}
	.st71{fill:#ECEAE7;}
	.st72{fill:#D7D1C9;}
	.st73{fill:#EEECEA;}
	.st74{fill:#ECEBE8;}
	.st75{fill:#E9E7E3;}
	.st76{fill:#EAE9E5;}
	.st77{fill:#D6CFC8;}
	.st78{fill:#DBD5CD;}
	.st79{fill:#EBE9E6;}
	.st80{fill:#EAE8E5;}
	.st81{fill:#E7E5E0;}
	.st82{fill:#E9E7E4;}
	.st83{fill:#D3CCC6;}
	.st84{fill:#EFEEEB;}
	.st85{fill:#EBEAE6;}
	.st86{fill:#D1CBC4;}
	.st87{fill:#DCD8D1;}
	.st88{fill:#D3CFC7;}
	.st89{fill:#ECEBE7;}
	.st90{fill:#EBEAE5;}
	.st91{fill:#EFEEEA;}
	.st92{fill:#E5E1DD;}
	.st93{fill:#CCC6BF;}
	.st94{fill:#D7D3CC;}
	.st95{fill:#D3CFC9;}
	.st96{fill:#D2CCC6;}
	.st97{fill:#D9D3CB;}
	.st98{fill:#DDDAD4;}
	.st99{fill:#F1EFED;}
	.st100{fill:#D8D4CD;}
	.st101{fill:#D6D0C8;}
	.st102{fill:#DEDAD2;}
	.st103{fill:#D6D0C9;}
	.st104{fill:#D8D4CC;}
	.st105{fill:#D4CEC8;}
	.st106{fill:#D9D5CF;}
	.st107{fill:#D4CEC7;}
	.st108{fill:#D8D1CB;}
	.st109{fill:#D9D5CE;}
	.st110{fill:#CFC9C3;}
	.st111{fill:#C1BBB5;}
	.st112{fill:#D6D2CC;}
	.st113{fill:#D7D4CF;}
	.st114{fill:#D6D0CB;}
	.st115{fill:#DCD8D3;}
	.st116{fill:#E6E1DD;}
	.st117{fill:#E1DDD6;}
	.st118{fill:#E7E3DF;}
	.st119{fill:#DAD6CF;}
	.st120{fill:#DDD7D0;}
	.st121{fill:#D6D0CA;}
	.st122{fill:#C9C3BE;}
	.st123{fill:#DCD6D0;}
	.st124{fill:#D9D5CD;}
	.st125{fill:#D5D2CB;}
	.st126{fill:#DAD4CE;}
	.st127{fill:#D7D3CD;}
	.st128{fill:#DBD7CF;}
	.st129{fill:#DBD7D2;}
	.st130{fill:#C9C3BD;}
	.st131{fill:#C8C2BD;}
	.st132{fill:#C8C1BB;}
	.st133{fill:#CCC6C0;}
	.st134{fill:#C1BAB5;}
	.st135{fill:#D3CDC8;}
	.st136{fill:#E7E6E0;}
	.st137{fill:#DFDCD5;}
	.st138{fill:#E0DCD7;}
	.st139{fill:#EBE9E5;}
	.st140{fill:#D5D1CB;}
	.st141{fill:#CEC8C3;}
	.st142{fill:#DCD6CF;}
	.st143{fill:#CAC4BF;}
	.st144{fill:#D5D1CC;}
	.st145{fill:#D8D5D0;}
	.st146{fill:#D8D4CE;}
	.st147{fill:#D6D2CB;}
	.st148{fill:#D1CBC5;}
	.st149{fill:#D1CBC6;}
	.st150{fill:#DDD9D4;}
	.st151{fill:#CEC7C2;}
	.st152{fill:#C6C0BB;}
	.st153{fill:#BBB5B0;}
	.st154{fill:#D2CCC7;}
	.st155{fill:#C7C1BC;}
	.st156{fill:#C4BEB9;}
	.st157{fill:#E8E7E2;}
	.st158{fill:#E2DFDA;}
	.st159{fill:#D9D5D0;}
	.st160{fill:#D7D3CE;}
	.st161{fill:#D7D1CB;}
	.st162{fill:#D2CFC9;}
	.st163{fill:#C9C3BF;}
	.st164{fill:#D4D0CA;}
	.st165{fill:#D7D4CE;}
	.st166{fill:#D1CBC7;}
	.st167{fill:#BFB9B4;}
	.st168{fill:#E9E8E3;}
	.st169{fill:#CDCAC5;}
	.st170{fill:#DBD7D3;}
	.st171{fill:#DBD7D1;}
	.st172{fill:#D5D2CC;}
	.st173{fill:#C0BAB4;}
	.st174{fill:#D4D0C9;}
	.st175{fill:#DAD7D1;}
	.st176{fill:#DEDBD5;}
	.st177{fill:#C2BCB6;}
	.st178{fill:#DCD9D3;}
	.st179{fill:#DBD5CF;}
	.st180{fill:#DDDAD5;}
	.st181{fill:#CDC7C1;}
	.st182{fill:#E4DFD9;}
	.st183{fill:#E1DED8;}
	.st184{fill:#E0DDD8;}
	.st185{fill:#E0DDD7;}
	.st186{fill:#D0CAC4;}
	.st187{fill:#DFDCD7;}
	.st188{fill:#B7B0AC;}
	.st189{fill:#C5BFBA;}
	.st190{fill:#C0BDB7;}
	.st191{fill:#D3CFCA;}
	.st192{fill:#DEDBD6;}
	.st193{fill:#D9D3CC;}
	.st194{fill:#BEBBB6;}
	.st195{fill:#DCD8D0;}
	.st196{fill:#DBD5CE;}
	.st197{fill:#DCD6CE;}
	.st198{fill:#DAD4CD;}
	.st199{fill:#DDD8D0;}
	.st200{fill:#D5CFC8;}
	.st201{fill:#D2CBC5;}
	.st202{fill:#CCC5BF;}
	.st203{fill:#DDD7CF;}
	.st204{fill:#CCC5C0;}
	.st205{fill:#D5CFC7;}
	.st206{fill:#C3BDB7;}
	.st207{fill:#C7C0B9;}
	.st208{fill:#B4AEA8;}
	.st209{fill:#CDC6BE;}
	.st210{fill:#D8D2CB;}
	.st211{fill:#CBC5BF;}
	.st212{fill:#D0CAC3;}
	.st213{fill:#D5D1CA;}
	.st214{fill:#D4CDC7;}
	.st215{fill:#D3CDC7;}
	.st216{fill:#B8B2AD;}
	.st217{fill:#E9E8E4;}
	.st218{fill:#C3C0BA;}
	.st219{fill:#CAC4BE;}
	.st220{fill:#C8C2BF;}
	.st221{fill:#CBC8C2;}
	.st222{fill:#DDD9D1;}
	.st223{fill:#DAD6CE;}
	.st224{fill:#BFB9B3;}
	.st225{fill:#B9B6B0;}
	.st226{fill:#C6C0BA;}
	.st227{fill:#C9C2BC;}
	.st228{fill:#BFB8B3;}
	.st229{fill:#E7E6E1;}
	.st230{fill:#B7B2AC;}
	.st231{fill:#CAC4C0;}
	.st232{fill:#D9D6D1;}
	.st233{fill:#DFDAD3;}
	.st234{fill:#E2DED7;}
	.st235{fill:#D1CEC7;}
	.st236{fill:#CAC3BD;}
	.st237{fill:#CBC8C1;}
	.st238{fill:#CEC8C1;}
	.st239{fill:#CFC8C0;}
	.st240{fill:#CEC7C1;}
	.st241{fill:#B6B0AC;}
	.st242{fill:#D6CFC9;}
	.st243{fill:#D8D2CC;}
	.st244{fill:#D8D5CE;}
	.st245{fill:#DED9D2;}
	.st246{fill:#DBD8D1;}
	.st247{fill:#DAD6D1;}
	.st248{fill:#D3CCC7;}
	.st249{fill:#D4CEC9;}
	.st250{fill:#DAD3CC;}
	.st251{fill:#CDC7C2;}
	.st252{fill:#C7C0BA;}
	.st253{fill:#C4C1BB;}
	.st254{fill:#CCC6C1;}
	.st255{fill:#D9D6CF;}
	.st256{fill:#D6D3CC;}
	.st257{fill:#D3D0CB;}
	.st258{fill:#D0CAC5;}
	.st259{fill:#CFC9C4;}
	.st260{fill:#E8E7E3;}
	.st261{fill:#E2DEDA;}
	.st262{fill:#C3BDB8;}
	.st263{fill:#DFDCD4;}
	.st264{fill:#C9C2BB;}
	.st265{fill:#C8C2BC;}
	.st266{fill:#DAD3CD;}
	.st267{fill:#D1CAC4;}
	.st268{fill:#D1CAC3;}
	.st269{fill:#AFA9A3;}
	.st270{fill:#D0CAC6;}
	.st271{fill:#D5D2CD;}
	.st272{fill:#CFC8C2;}
	.st273{fill:#D4CEC6;}
	.st274{fill:#C1BAB3;}
	.st275{fill:#D4CDC8;}
	.st276{fill:#CFC8C1;}
	.st277{fill:#D5D2CA;}
	.st278{fill:#DFDAD5;}
	.st279{fill:#CDCAC3;}
	.st280{fill:#D8D1CA;}
	.st281{fill:#D4D0C8;}
	.st282{fill:#BCB5AF;}
	.st283{fill:#CAC3BC;}
	.st284{fill:#D7D1CA;}
	.st285{fill:#C4BDB8;}
	.st286{fill:#CEC8C2;}
	.st287{fill:#CBC5C0;}
	.st288{fill:#CFC8C3;}
	.st289{fill:#CDC7C0;}
	.st290{fill:#C4BDB7;}
	.st291{fill:#D0C9C3;}
	.st292{fill:#C0B9B4;}
	.st293{fill:#C1BBB6;}
	.st294{fill:#D3D0CA;}
	.st295{fill:#C5BFB9;}
	.st296{fill:#D6CFC7;}
	.st297{fill:#C9C2BD;}
	.st298{fill:#C7C1BD;}
	.st299{fill:#C1BEB7;}
	.st300{fill:#B8B5AF;}
	.st301{fill:#C5BFBB;}
	.st302{fill:#C8C5BF;}
	.st303{fill:#B2ADA7;}
	.st304{fill:#BEB8B3;}
	.st305{fill:#C2BBB6;}
	.st306{fill:#BDB7B2;}
	.st307{fill:#D2CFC8;}
	.st308{fill:#C3BCB6;}
	.st309{fill:#D9D6D0;}
	.st310{fill:#C9C6C0;}
	.st311{fill:#D0CDC6;}
	.st312{fill:#DDD8D3;}
	.st313{fill:#C1BEB8;}
	.st314{fill:#CECBC5;}
	.st315{fill:#DEDBD7;}
	.st316{fill:#C1BBB7;}
	.st317{fill:#BFBCB7;}
	.st318{fill:#DFDAD4;}
	.st319{fill:#BFBCB6;}
	.st320{fill:#DEDAD6;}
	.st321{fill:#D4D1CA;}
	.st322{fill:#E4E0DC;}
	.st323{fill:#E5E2DE;}
	.st324{fill:#D0C9C2;}
	.st325{fill:#C6BFBA;}
	.st326{fill:#D1CEC8;}
	.st327{fill:#CBC9C3;}
	.st328{fill:#BCB9B3;}
	.st329{fill:#D6D3CF;}
	.st330{fill:#D9D6D2;}
	.st331{fill:#CFCCC6;}
	.st332{fill:#C2BBB5;}
	.st333{fill:#D2CBC7;}
	.st334{fill:#DBD8D3;}
	.st335{fill:#CCC9C3;}
	.st336{fill:#DCD9D4;}
	.st337{fill:#CBC5C1;}
	.st338{fill:#C8C2BE;}
	.st339{fill:#D7D4CD;}
	.st340{fill:#B7B0AA;}
	.st341{fill:#DEDBD4;}
	.st342{fill:#C3BCB5;}
	.st343{fill:#CFC9C2;}
	.st344{fill:#D3CDC6;}
	.st345{fill:#BCB6B1;}
	.st346{fill:#E0DBD5;}
	.st347{fill:#C5C2BB;}
	.st348{fill:#DAD4CF;}
	.st349{fill:#C5BFB8;}
	.st350{fill:#DAD3CE;}
	.st351{fill:#C4BEB8;}
	.st352{fill:#C5BEB9;}
	.st353{fill:#C2BCB8;}
	.st354{fill:#C0BAB5;}
	.st355{fill:#DAD7D2;}
	.st356{fill:#DDD7D1;}
	.st357{fill:#DFDBD3;}
	.st358{fill:#D3CFCB;}
	.st359{fill:#D4CECA;}
	.st360{fill:#D6D3CD;}
	.st361{fill:#EAE9E6;}
	.st362{fill:#D8D2CD;}
	.st363{fill:#E3DFDA;}
	.st364{fill:#D3D0CC;}
	.st365{fill:#CEC8C4;}
	.st366{fill:#CCC9C4;}
	.st367{fill:#DCD9D5;}
	.st368{fill:#D4D0CB;}
	.st369{fill:#D0CDC7;}
	.st370{fill:#D2CFCA;}
	.st371{fill:#C3C0B9;}
	.st372{fill:#D8D4D0;}
	.st373{fill:#D6D2CD;}
	.st374{fill:#DBD8D4;}
	.st375{fill:#E4DFDB;}
	.st376{fill:#D8D5D1;}
	.st377{fill:#C6C0BC;}
	.st378{fill:#CAC7C1;}
	.st379{fill:#C7C4BE;}
	.st380{fill:#DAD6D2;}
	.st381{fill:#CDC7C3;}
	.st382{fill:#DDD9D5;}
	.st383{fill:#D9D5D1;}
	.st384{fill:#DCD6D1;}
	.st385{fill:#B7B4AE;}
	.st386{fill:#D3CCC5;}
	.st387{fill:#B5B0A9;}
	.st388{fill:#D0C9C4;}
	.st389{fill:#BFB8B2;}
	.st390{fill:#CDCAC4;}
	.st391{fill:#D3D0C9;}
	.st392{fill:#BAB4AE;}
	.st393{fill:#B5B2AC;}
	.st394{fill:#BCB6B0;}
	.st395{fill:#C7C1BB;}
	.st396{fill:#C7C4BD;}
	.st397{fill:#B8B2AE;}
	.st398{fill:#C3BCB7;}
	.st399{fill:#B8B5B0;}
	.st400{fill:#C3C0BC;}
	.st401{fill:#C2BCB7;}
	.st402{fill:#CCC6C2;}
	.st403{fill:#BEB8B4;}
	.st404{fill:#C7C0BB;}
	.st405{fill:#CAC4BD;}
	.st406{fill:#B3AEA8;}
	.st407{fill:#CBC4BE;}
	.st408{fill:#C5C2BC;}
	.st409{fill:#BDB7B1;}
	.st410{fill:#EAE8E4;}
	.st411{fill:#E6E5E0;}
	.st412{fill:#DFDBD7;}
	.st413{fill:#DAD7D3;}
	.st414{fill:#D2CCC8;}
	.st415{fill:#D4D1CB;}
	.st416{fill:#D4D1CD;}
	.st417{fill:#E0DDD9;}
	.st418{fill:#C0BAB6;}
	.st419{fill:#CECBC6;}
	.st420{fill:#E0DCD8;}
	.st421{fill:#E2DDD9;}
	.st422{fill:#C8C1BC;}
	.st423{fill:#DDDAD6;}
	.st424{fill:#CFCCC5;}
	.st425{fill:#EAE6E3;}
	.st426{fill:#CAC3BE;}
	.st427{fill:#BCB5B0;}
	.st428{fill:#EBE9E4;}
	.st429{fill:#D6D0CC;}
	.st430{fill:#E2DFDB;}
	.st431{fill:#C9C6C1;}
	.st432{fill:#D5D1CD;}
	.st433{fill:#BCB6B2;}
	.st434{fill:#D1CAC5;}
	.st435{fill:#D7D3CB;}
	.st436{fill:#C7C1BA;}
	.st437{fill:#BBB4AE;}
	.st438{fill:#C6BFB9;}
	.st439{fill:#CCC9C2;}
	.st440{fill:#DCD8D4;}
	.st441{fill:#CBC8C3;}
	.st442{fill:#DDDCD7;}
	.st443{fill:#D0CDC8;}
	.st444{fill:#D7D3CF;}
	.st445{fill:#C4C1BC;}
	.st446{fill:#DFDCD8;}
	.st447{fill:#D3CDC9;}
	.st448{fill:#E3E0DC;}
	.st449{fill:#D6D5D0;}
	.st450{fill:#DAD6D3;}
	.st451{fill:#CDC6C0;}
	.st452{fill:#C9C3BC;}
	.st453{fill:#BEB7B2;}
	.st454{fill:#D6CFCA;}
	.st455{fill:#CDC6BF;}
	.st456{fill:#CBC4BD;}
	.st457{fill:#CBC5BE;}
	.st458{fill:#CEC7C0;}
	.st459{fill:#C4BEBA;}
	.st460{fill:#D9D3CD;}
	.st461{fill:#E0DCD5;}
	.st462{fill:#B6B0A9;}
	.st463{fill:#B4AFA9;}
	.st464{fill:#BCB6AF;}
	.st465{fill:#E8E4E1;}
	.st466{fill:#E1DDD8;}
	.st467{fill:#D7D4D0;}
	.st468{fill:#D8D1CC;}
	.st469{fill:#C5BEB8;}
	.st470{fill:#C2BBB2;}
	.st471{fill:#E4E3DE;}
	.st472{fill:#D1CEC9;}
	.st473{fill:#E4E1DD;}
	.st474{fill:#C2BFB9;}
	.st475{fill:#C6C3BE;}
	.st476{fill:#CDC6C1;}
	.st477{fill:#CBC4BF;}
	.st478{fill:#D5CFC9;}
	.st479{fill:#D2CCC5;}
	.st480{fill:#E1DED9;}
	.st481{fill:#E1E0DB;}
	.st482{fill:#D0CAC7;}
	.st483{fill:#CFCCC8;}
	.st484{fill:#C8C5C0;}
	.st485{fill:#C1BAB4;}
	.st486{fill:#C8C1BA;}
	.st487{fill:#BEB7B0;}
	.st488{fill:#C8C2BB;}
	.st489{fill:#E8E6E3;}
	.st490{fill:#DAD7CF;}
	.st491{fill:#BAB3AE;}
	.st492{fill:#CDCAC2;}
	.st493{fill:#B8B2AC;}
	.st494{fill:#C0B9B3;}
	.st495{fill:#B6B0AB;}
	.st496{fill:#C7C4BF;}
	.st497{fill:#CFC9C5;}
	.st498{fill:#CFCCC7;}
	.st499{fill:#BCB9B5;}
	.st500{fill:#B7B0AB;}
	.st501{fill:#D5D2CE;}
	.st502{fill:#BDBAB6;}
	.st503{fill:#C3BDB9;}
	.st504{fill:#D4CDC6;}
	.st505{fill:#B9B2AC;}
	.st506{fill:#C6BCB3;}
	.st507{fill:#BEB8B2;}
	.st508{fill:#CDCBC6;}
	.st509{fill:#C6BDB5;}
	.st510{fill:#CAC7C0;}
	.st511{fill:#BAB3AD;}
	.st512{fill:#ECEAE8;}
	.st513{fill:#D3D0C8;}
	.st514{fill:#E5E4DF;}
	.st515{fill:#D4CCC6;}
</style>
<g>
	<defs>
		<rect id="SVGID_4_" x="-190.24" y="72.2" width="126" height="144"/>
	</defs>
	<clipPath id="SVGID_2_">
		<use xlink:href="#SVGID_4_"  style="overflow:visible;"/>
	</clipPath>
	
		<linearGradient id="SVGID_3_" gradientUnits="userSpaceOnUse" x1="-43.1907" y1="51.004" x2="-42.1907" y2="51.004" gradientTransform="matrix(135 -135 -135 -135 12521.54 1266.5)">
		<stop  offset="0" style="stop-color:#1276BD"/>
		<stop  offset="1" style="stop-color:#074183"/>
	</linearGradient>
	<polygon class="st0" points="-262.24,144.2 -127.24,9.2 7.76,144.2 -127.24,279.2 	"/>
</g>
<g>
	<text transform="matrix(0.7261 0 0 1 9.1942 64.831)" class="st7 st8 st9">C</text>
	<text transform="matrix(0.7261 0 0 1 12.4012 64.831)" class="st10 st8 st11">UBE</text>
	<text transform="matrix(0.7261 0 0 1 20.0956 64.831)" class="st7 st8 st9">A</text>
	<text transform="matrix(0.7261 0 0 1 23.5682 64.831)" class="st10 st8 st11">I</text>
	<text transform="matrix(0.7261 0 0 1 24.8485 64.831)" class="st7 st8 st9">S</text>
	<text transform="matrix(0.7261 0 0 1 27.5233 64.831)"><tspan x="0" y="0" class="st10 st8 st12">OLUTIONS </tspan><tspan x="35.89" y="0" class="st7 st8 st13">T</tspan><tspan x="41.1" y="0" class="st10 st8 st12">ech </tspan><tspan x="52.46" y="0" class="st7 st8 st13">P</tspan><tspan x="57.22" y="0" class="st10 st8 st12">vt </tspan><tspan x="64.41" y="0" class="st7 st8 st13">L</tspan><tspan x="69.62" y="0" class="st10 st8 st12">td</tspan></text>
</g>
<g>
	<polygon class="st1" points="43.53,11.32 62.36,21.97 43.73,32.95 	"/>
	<polygon class="st1" points="24.91,22.31 43.74,32.95 43.54,11.32 	"/>
	<polygon class="st2" points="43.67,25.76 49.91,29.29 43.73,32.94 	"/>
	<polygon class="st3" points="49.84,22.11 56.09,25.64 49.9,29.29 	"/>
	<polygon class="st2" points="37.48,29.41 43.73,32.94 43.67,25.76 	"/>
	<polygon class="st3" points="31.24,25.88 37.48,29.41 37.42,22.23 	"/>
	<polygon class="st3" points="43.53,11.33 49.78,14.86 43.6,18.51 	"/>
	<polygon class="st2" points="49.78,14.87 56.03,18.4 49.85,22.04 	"/>
	<polygon class="st3" points="37.35,14.98 43.6,18.51 43.54,11.33 	"/>
	<polygon class="st2" points="31.17,18.63 37.42,22.16 37.35,14.98 	"/>
	<polygon class="st4" points="43.19,33.75 43.39,55.38 24.56,44.73 	"/>
	<polygon class="st4" points="24.37,23.11 24.56,44.74 43.2,33.75 	"/>
	<polygon class="st3" points="30.75,41.08 30.82,48.26 24.57,44.73 	"/>
	<polygon class="st3" points="37,44.6 37.07,51.78 30.82,48.25 	"/>
	<polygon class="st3" points="24.51,37.55 24.57,44.73 30.75,41.08 	"/>
	<polygon class="st3" points="24.44,30.37 24.51,37.55 30.69,33.91 	"/>
	<polygon class="st5" points="43.19,33.75 43.25,40.93 37,37.4 	"/>
	<polygon class="st5" points="43.25,40.93 43.31,48.11 37.07,44.58 	"/>
	<polygon class="st2" points="36.94,30.22 37,37.4 43.19,33.76 	"/>
	<polygon class="st5" points="30.69,26.69 30.75,33.87 36.94,30.22 	"/>
	<polygon class="st2" points="44.05,33.75 44.28,55.38 62.89,44.37 	"/>
	<polygon class="st3" points="56.63,40.84 56.7,48.02 62.88,44.36 	"/>
	<polygon class="st3" points="50.45,44.48 50.53,51.66 56.7,48 	"/>
	<polygon class="st3" points="62.81,37.19 62.88,44.36 56.63,40.84 	"/>
	<polygon class="st3" points="68.55,29.71 68.65,36.89 62.39,33.39 	"/>
	<polygon class="st2" points="62.81,37.19 56.63,40.84 56.55,33.66 	"/>
	<polygon class="st5" points="44.05,33.76 44.13,40.93 50.31,37.28 	"/>
	<polygon class="st5" points="44.13,40.93 44.21,48.11 50.39,44.46 	"/>
	<polygon class="st3" points="50.23,30.11 50.31,37.28 44.06,33.76 	"/>
	<polygon class="st5" points="60.25,26.18 60.41,33.4 54.08,29.85 	"/>
	<polygon class="st2" points="56.55,33.66 56.63,40.84 50.33,37.29 	"/>
	<polygon class="st2" points="50.23,30.11 50.3,37.31 56.55,33.66 	"/>
	<polygon class="st2" points="68.01,28.44 61.89,32.19 61.7,24.97 	"/>
	<polygon class="st2" points="67.81,21.19 61.66,24.95 68.01,28.44 	"/>
</g>
<path d="M11.74,72.79l0.2-0.23c0.19,0.2,0.45,0.33,0.72,0.33c0.34,0,0.55-0.17,0.55-0.43c0-0.27-0.19-0.35-0.44-0.46l-0.38-0.17
	c-0.24-0.1-0.53-0.29-0.53-0.68c0-0.4,0.35-0.7,0.83-0.7c0.31,0,0.59,0.13,0.77,0.33l-0.18,0.21c-0.16-0.15-0.35-0.25-0.6-0.25
	c-0.29,0-0.49,0.15-0.49,0.38c0,0.25,0.23,0.35,0.43,0.43l0.37,0.16c0.3,0.13,0.54,0.31,0.54,0.7c0,0.41-0.34,0.75-0.9,0.75
	C12.29,73.17,11.97,73.02,11.74,72.79z M13.99,71.18h0.27l0.03,0.28h0.01c0.17-0.18,0.37-0.33,0.61-0.33c0.3,0,0.46,0.14,0.54,0.37
	c0.2-0.22,0.4-0.37,0.64-0.37c0.4,0,0.59,0.26,0.59,0.76v1.23h-0.33v-1.19c0-0.36-0.11-0.52-0.36-0.52c-0.15,0-0.31,0.1-0.49,0.3
	v1.41h-0.33v-1.19c0-0.36-0.11-0.52-0.36-0.52c-0.15,0-0.31,0.1-0.49,0.3v1.41h-0.33V71.18z M17.14,72.62
	c0-0.42,0.37-0.64,1.19-0.73c0-0.25-0.08-0.49-0.4-0.49c-0.23,0-0.43,0.11-0.58,0.21l-0.13-0.23c0.18-0.12,0.45-0.25,0.76-0.25
	c0.47,0,0.68,0.32,0.68,0.8v1.19h-0.27l-0.03-0.23h-0.01c-0.19,0.15-0.4,0.28-0.64,0.28C17.38,73.17,17.14,72.97,17.14,72.62z
	 M18.33,72.65v-0.54c-0.65,0.08-0.87,0.24-0.87,0.49c0,0.22,0.15,0.31,0.34,0.31C17.99,72.91,18.14,72.82,18.33,72.65z M19.23,71.18
	h0.27l0.03,0.35h0.01c0.14-0.25,0.33-0.4,0.55-0.4c0.09,0,0.15,0.01,0.21,0.04l-0.06,0.29c-0.07-0.02-0.11-0.03-0.19-0.03
	c-0.16,0-0.36,0.12-0.49,0.45v1.25h-0.33V71.18z M20.62,72.53v-1.08h-0.29V71.2l0.3-0.02l0.04-0.55h0.27v0.55h0.53v0.27h-0.53v1.08
	c0,0.24,0.08,0.38,0.3,0.38c0.07,0,0.16-0.03,0.22-0.05l0.06,0.25c-0.11,0.04-0.24,0.07-0.36,0.07
	C20.76,73.17,20.62,72.91,20.62,72.53z M22.46,72.79l0.2-0.23c0.19,0.2,0.45,0.33,0.72,0.33c0.34,0,0.55-0.17,0.55-0.43
	c0-0.27-0.19-0.35-0.44-0.46l-0.38-0.17c-0.24-0.1-0.53-0.29-0.53-0.68c0-0.4,0.35-0.7,0.83-0.7c0.31,0,0.59,0.13,0.77,0.33
	l-0.18,0.21c-0.16-0.15-0.35-0.25-0.6-0.25c-0.29,0-0.49,0.15-0.49,0.38c0,0.25,0.23,0.35,0.43,0.43l0.37,0.16
	c0.3,0.13,0.54,0.31,0.54,0.7c0,0.41-0.34,0.75-0.9,0.75C23.01,73.17,22.69,73.02,22.46,72.79z M24.57,72.16
	c0-0.65,0.42-1.02,0.9-1.02c0.48,0,0.9,0.37,0.9,1.02c0,0.64-0.42,1.02-0.9,1.02C24.99,73.17,24.57,72.8,24.57,72.16z M26.03,72.16
	c0-0.45-0.23-0.75-0.56-0.75c-0.33,0-0.56,0.3-0.56,0.75c0,0.45,0.23,0.74,0.56,0.74C25.8,72.9,26.03,72.6,26.03,72.16z
	 M26.81,72.74v-2.46h0.33v2.48c0,0.1,0.04,0.14,0.09,0.14c0.02,0,0.03,0,0.07-0.01l0.04,0.25c-0.05,0.02-0.1,0.03-0.19,0.03
	C26.92,73.17,26.81,73.02,26.81,72.74z M27.76,72.41v-1.23h0.33v1.19c0,0.36,0.11,0.52,0.37,0.52c0.2,0,0.34-0.1,0.52-0.33v-1.38
	h0.33v1.95h-0.27l-0.03-0.3H29c-0.18,0.21-0.37,0.35-0.64,0.35C27.94,73.17,27.76,72.91,27.76,72.41z M29.97,72.53v-1.08h-0.29V71.2
	l0.3-0.02l0.04-0.55h0.27v0.55h0.53v0.27H30.3v1.08c0,0.24,0.08,0.38,0.3,0.38c0.07,0,0.16-0.03,0.22-0.05l0.06,0.25
	c-0.11,0.04-0.24,0.07-0.36,0.07C30.11,73.17,29.97,72.91,29.97,72.53z M31.16,70.57c0-0.13,0.1-0.21,0.23-0.21
	c0.13,0,0.23,0.08,0.23,0.21c0,0.12-0.1,0.21-0.23,0.21C31.26,70.78,31.16,70.69,31.16,70.57z M31.22,71.18h0.33v1.95h-0.33V71.18z
	 M32.01,72.16c0-0.65,0.42-1.02,0.9-1.02c0.48,0,0.9,0.37,0.9,1.02c0,0.64-0.42,1.02-0.9,1.02C32.43,73.17,32.01,72.8,32.01,72.16z
	 M33.47,72.16c0-0.45-0.23-0.75-0.56-0.75c-0.33,0-0.56,0.3-0.56,0.75c0,0.45,0.23,0.74,0.56,0.74
	C33.25,72.9,33.47,72.6,33.47,72.16z M34.27,71.18h0.27l0.03,0.28h0.01c0.19-0.18,0.39-0.33,0.65-0.33c0.41,0,0.59,0.26,0.59,0.76
	v1.23H35.5v-1.19c0-0.36-0.11-0.52-0.37-0.52c-0.2,0-0.34,0.1-0.53,0.3v1.41h-0.33V71.18z M36.2,72.9l0.16-0.22
	c0.17,0.14,0.34,0.23,0.57,0.23c0.26,0,0.38-0.14,0.38-0.3c0-0.2-0.23-0.29-0.44-0.37c-0.27-0.1-0.58-0.23-0.58-0.56
	c0-0.31,0.25-0.55,0.67-0.55c0.24,0,0.45,0.1,0.6,0.22l-0.16,0.21c-0.13-0.1-0.27-0.17-0.44-0.17c-0.25,0-0.36,0.13-0.36,0.28
	c0,0.18,0.21,0.26,0.43,0.34c0.28,0.11,0.59,0.22,0.59,0.59c0,0.32-0.25,0.58-0.71,0.58C36.65,73.17,36.38,73.06,36.2,72.9z
	 M38.83,70.5h0.75c0.59,0,0.99,0.2,0.99,0.77c0,0.55-0.4,0.81-0.97,0.81h-0.43v1.04h-0.33V70.5z M40.23,71.27
	c0-0.38-0.23-0.5-0.69-0.5h-0.37v1.04h0.39C40.01,71.81,40.23,71.65,40.23,71.27z M40.77,72.16c0-0.65,0.42-1.02,0.9-1.02
	c0.48,0,0.9,0.37,0.9,1.02c0,0.64-0.42,1.02-0.9,1.02C41.2,73.17,40.77,72.8,40.77,72.16z M42.23,72.16c0-0.45-0.23-0.75-0.56-0.75
	c-0.33,0-0.56,0.3-0.56,0.75c0,0.45,0.23,0.74,0.56,0.74C42.01,72.9,42.23,72.6,42.23,72.16z M42.79,71.18h0.34l0.29,1.12
	c0.04,0.18,0.08,0.36,0.12,0.54h0.02c0.04-0.18,0.08-0.36,0.13-0.54l0.3-1.12h0.32l0.3,1.12c0.05,0.18,0.09,0.36,0.14,0.54h0.02
	c0.04-0.18,0.08-0.36,0.12-0.54l0.28-1.12h0.31l-0.52,1.95h-0.4l-0.28-1.05c-0.05-0.18-0.08-0.36-0.13-0.56h-0.02
	c-0.04,0.2-0.08,0.38-0.13,0.57l-0.27,1.04h-0.38L42.79,71.18z M45.68,72.16c0-0.63,0.43-1.02,0.87-1.02c0.5,0,0.78,0.36,0.78,0.91
	c0,0.07-0.01,0.14-0.02,0.19h-1.31c0.02,0.41,0.28,0.68,0.65,0.68c0.19,0,0.34-0.06,0.48-0.16l0.12,0.22
	c-0.17,0.11-0.38,0.2-0.64,0.2C46.1,73.17,45.68,72.8,45.68,72.16z M47.04,72c0-0.39-0.18-0.6-0.48-0.6c-0.27,0-0.52,0.22-0.56,0.6
	H47.04z M47.76,71.18h0.27l0.03,0.35h0.01c0.14-0.25,0.33-0.4,0.55-0.4c0.09,0,0.15,0.01,0.21,0.04l-0.06,0.29
	c-0.07-0.02-0.11-0.03-0.19-0.03c-0.16,0-0.36,0.12-0.49,0.45v1.25h-0.33V71.18z M48.92,72.16c0-0.63,0.43-1.02,0.87-1.02
	c0.5,0,0.78,0.36,0.78,0.91c0,0.07-0.01,0.14-0.02,0.19h-1.31c0.02,0.41,0.28,0.68,0.65,0.68c0.19,0,0.34-0.06,0.48-0.16l0.12,0.22
	c-0.17,0.11-0.38,0.2-0.64,0.2C49.33,73.17,48.92,72.8,48.92,72.16z M50.28,72c0-0.39-0.18-0.6-0.48-0.6c-0.27,0-0.52,0.22-0.56,0.6
	H50.28z M50.86,72.16c0-0.63,0.4-1.02,0.84-1.02c0.23,0,0.37,0.09,0.55,0.23l-0.01-0.33v-0.75h0.33v2.85h-0.27l-0.03-0.23h-0.01
	c-0.15,0.15-0.36,0.28-0.59,0.28C51.18,73.17,50.86,72.81,50.86,72.16z M52.23,72.63v-1.02c-0.17-0.15-0.32-0.2-0.47-0.2
	c-0.31,0-0.56,0.3-0.56,0.74c0,0.47,0.19,0.74,0.53,0.74C51.92,72.9,52.07,72.81,52.23,72.63z M54.23,72.93h-0.01l-0.03,0.2h-0.26
	v-2.85h0.33v0.78l-0.01,0.35c0.18-0.15,0.39-0.27,0.61-0.27c0.5,0,0.77,0.39,0.77,0.99c0,0.66-0.4,1.05-0.84,1.05
	C54.6,73.17,54.4,73.08,54.23,72.93z M55.29,72.13c0-0.43-0.15-0.72-0.51-0.72c-0.16,0-0.34,0.09-0.52,0.27v1.02
	c0.17,0.15,0.35,0.2,0.47,0.2C55.05,72.9,55.29,72.61,55.29,72.13z M55.88,73.93l0.06-0.26c0.04,0.01,0.1,0.03,0.15,0.03
	c0.22,0,0.36-0.18,0.44-0.42l0.04-0.14l-0.78-1.95h0.34l0.4,1.08c0.06,0.17,0.13,0.37,0.19,0.55h0.02c0.06-0.18,0.11-0.38,0.16-0.55
	l0.35-1.08h0.32l-0.73,2.11c-0.14,0.39-0.34,0.68-0.73,0.68C56.01,73.97,55.94,73.95,55.88,73.93z M59.22,70.5h0.38l0.89,2.63h-0.35
	l-0.25-0.8h-0.96l-0.25,0.8h-0.34L59.22,70.5z M59.79,72.06l-0.12-0.4c-0.09-0.29-0.18-0.58-0.26-0.89h-0.02
	c-0.08,0.3-0.17,0.59-0.26,0.89L59,72.06H59.79z M60.79,70.5h0.33v2.63h-0.33V70.5z M63.32,70.5c0.53,0,0.9,0.18,0.9,0.64
	c0,0.26-0.14,0.49-0.38,0.57v0.02c0.31,0.06,0.53,0.27,0.53,0.63c0,0.52-0.41,0.77-0.99,0.77h-0.84V70.5H63.32z M63.9,71.19
	c0-0.31-0.21-0.42-0.62-0.42h-0.4v0.85h0.39C63.71,71.62,63.9,71.45,63.9,71.19z M63.33,72.86c0.45,0,0.71-0.16,0.71-0.52
	c0-0.32-0.25-0.47-0.71-0.47h-0.46v0.99H63.33z M64.82,71.18h0.27l0.03,0.35h0.01c0.14-0.25,0.33-0.4,0.55-0.4
	c0.09,0,0.15,0.01,0.21,0.04l-0.06,0.29c-0.07-0.02-0.11-0.03-0.19-0.03c-0.16,0-0.36,0.12-0.49,0.45v1.25h-0.33V71.18z M66.1,70.57
	c0-0.13,0.1-0.21,0.23-0.21c0.13,0,0.23,0.08,0.23,0.21c0,0.12-0.1,0.21-0.23,0.21C66.2,70.78,66.1,70.69,66.1,70.57z M66.16,71.18
	h0.33v1.95h-0.33V71.18z M67.09,72.74v-2.46h0.33v2.48c0,0.1,0.04,0.14,0.09,0.14c0.02,0,0.03,0,0.07-0.01l0.04,0.25
	c-0.05,0.02-0.1,0.03-0.19,0.03C67.19,73.17,67.09,73.02,67.09,72.74z M68.06,72.74v-2.46h0.33v2.48c0,0.1,0.04,0.14,0.09,0.14
	c0.02,0,0.03,0,0.07-0.01l0.04,0.25c-0.05,0.02-0.1,0.03-0.19,0.03C68.17,73.17,68.06,73.02,68.06,72.74z M68.98,70.57
	c0-0.13,0.1-0.21,0.23-0.21c0.13,0,0.23,0.08,0.23,0.21c0,0.12-0.1,0.21-0.23,0.21C69.08,70.78,68.98,70.69,68.98,70.57z
	 M69.04,71.18h0.33v1.95h-0.33V71.18z M69.85,72.62c0-0.42,0.37-0.64,1.19-0.73c0-0.25-0.08-0.49-0.4-0.49
	c-0.23,0-0.43,0.11-0.58,0.21l-0.13-0.23c0.18-0.12,0.45-0.25,0.76-0.25c0.47,0,0.68,0.32,0.68,0.8v1.19H71.1l-0.03-0.23h-0.01
	c-0.19,0.15-0.4,0.28-0.64,0.28C70.1,73.17,69.85,72.97,69.85,72.62z M71.05,72.65v-0.54c-0.65,0.08-0.87,0.24-0.87,0.49
	c0,0.22,0.15,0.31,0.34,0.31C70.7,72.91,70.86,72.82,71.05,72.65z M71.94,71.18h0.27l0.03,0.28h0.01c0.19-0.18,0.39-0.33,0.65-0.33
	c0.41,0,0.59,0.26,0.59,0.76v1.23h-0.33v-1.19c0-0.36-0.11-0.52-0.37-0.52c-0.2,0-0.34,0.1-0.53,0.3v1.41h-0.33V71.18z M73.94,72.16
	c0-0.65,0.44-1.02,0.94-1.02c0.26,0,0.43,0.11,0.57,0.23l-0.17,0.22c-0.11-0.1-0.23-0.17-0.39-0.17c-0.35,0-0.61,0.3-0.61,0.75
	c0,0.45,0.24,0.74,0.6,0.74c0.18,0,0.34-0.09,0.46-0.19l0.14,0.22c-0.17,0.16-0.4,0.25-0.63,0.25
	C74.33,73.17,73.94,72.8,73.94,72.16z M75.63,72.16c0-0.63,0.43-1.02,0.87-1.02c0.5,0,0.78,0.36,0.78,0.91
	c0,0.07-0.01,0.14-0.02,0.19h-1.31c0.02,0.41,0.28,0.68,0.65,0.68c0.19,0,0.34-0.06,0.48-0.16l0.12,0.22
	c-0.17,0.11-0.38,0.2-0.64,0.2C76.04,73.17,75.63,72.8,75.63,72.16z M76.99,72c0-0.39-0.18-0.6-0.48-0.6c-0.27,0-0.52,0.22-0.56,0.6
	H76.99z"/>
</svg>
